<svg width="34" height="34" viewBox="0 0 34 34" fill="none" xmlns="http://www.w3.org/2000/svg">
<rect x="6" y="11" width="17" height="14" fill="#FF2D2D"/>
<rect x="6" y="8" width="6" height="3" fill="#FF2D2D"/>
<rect x="12" y="23" width="11" height="8" fill="#FF2D2D"/>
<rect x="20" y="11" width="10" height="12" fill="#FF2D2D"/>
<rect x="21" y="8" width="6" height="17" fill="#FF2D2D"/>
<rect x="14" y="8" width="3" height="3" transform="rotate(90 14 8)" fill="black"/>
<rect x="6" y="8" width="3" height="3" transform="rotate(90 6 8)" fill="black"/>
<rect x="22" y="8" width="3" height="3" transform="rotate(90 22 8)" fill="black"/>
<rect x="19" y="11" width="3" height="5" transform="rotate(90 19 11)" fill="black"/>
<rect x="11" y="5" width="3" height="5" transform="rotate(90 11 5)" fill="black"/>
<rect width="3" height="3" transform="matrix(4.37114e-08 1 1 -4.37114e-08 27 8)" fill="black"/>
<rect width="3" height="5" transform="matrix(3.64262e-08 1 1 -5.24537e-08 22 5)" fill="black"/>
<rect width="11" height="3" transform="matrix(4.37114e-08 1 1 -4.37114e-08 30 11)" fill="black"/>
<rect x="6" y="22" width="4" height="3" fill="#9D0000"/>
<rect x="3" y="11" width="3" height="11" fill="#9D0000"/>
<rect x="26" y="12" width="2" height="3" fill="white"/>
<rect x="10" y="25" width="3" height="3" fill="#9D0000"/>
<rect x="14" y="28" width="3" height="3" fill="#9D0000"/>
<rect x="14" y="32" width="3" height="2" fill="#9D0000"/>
<rect x="14" y="31" width="5" height="3" fill="black"/>
<rect x="14" y="28" width="3" height="4" transform="rotate(90 14 28)" fill="black"/>
<rect x="30" y="22" width="3" height="3" transform="rotate(90 30 22)" fill="black"/>
<rect x="6" y="22" width="3" height="3" transform="rotate(90 6 22)" fill="black"/>
<rect x="23" y="28" width="3" height="4" transform="rotate(90 23 28)" fill="black"/>
<rect x="10" y="25" width="3" height="4" transform="rotate(90 10 25)" fill="black"/>
<rect x="27" y="25" width="3" height="4" transform="rotate(90 27 25)" fill="black"/>
<rect x="3" y="11" width="11" height="3" transform="rotate(90 3 11)" fill="black"/>
</svg>
