<svg width="32" height="32" viewBox="0 0 32 32" fill="none" xmlns="http://www.w3.org/2000/svg">
<rect x="6" y="9" width="17" height="15" fill="#FF2D2D"/>
<rect x="6" y="7" width="6" height="3" fill="#FF2D2D"/>
<rect x="12" y="19" width="9" height="11" fill="#FF2D2D"/>
<rect x="20" y="23" width="3" height="4" fill="#FF2D2D"/>
<rect x="19" y="9" width="10" height="10" fill="#FF2D2D"/>
<rect x="21" y="7" width="6" height="17" fill="#FF2D2D"/>
<rect x="14" y="7" width="2" height="2" transform="rotate(90 14 7)" fill="black"/>
<rect x="6" y="7" width="2" height="2" transform="rotate(90 6 7)" fill="black"/>
<rect x="21" y="7" width="2" height="2" transform="rotate(90 21 7)" fill="black"/>
<rect x="19" y="9" width="2" height="5" transform="rotate(90 19 9)" fill="black"/>
<rect x="12" y="5" width="2" height="6" transform="rotate(90 12 5)" fill="black"/>
<rect width="2" height="2" transform="matrix(4.37114e-08 1 1 -4.37114e-08 27 7)" fill="black"/>
<rect width="3" height="2" transform="matrix(4.37114e-08 1 1 -4.37114e-08 25 21)" fill="black"/>
<rect width="2" height="2" transform="matrix(4.37114e-08 1 1 -4.37114e-08 23 24)" fill="black"/>
<rect width="2" height="2" transform="matrix(4.37114e-08 1 1 -4.37114e-08 19 28)" fill="black"/>
<rect width="2" height="2" transform="matrix(4.37114e-08 1 1 -4.37114e-08 21 26)" fill="black"/>
<rect width="2" height="6" transform="matrix(3.64262e-08 1 1 -5.24537e-08 21 5)" fill="black"/>
<rect width="3" height="2" transform="matrix(4.37114e-08 1 1 -4.37114e-08 27 18)" fill="black"/>
<rect width="9" height="2" transform="matrix(4.37114e-08 1 1 -4.37114e-08 29 9)" fill="black"/>
<rect x="6" y="18" width="2" height="3" fill="#9D0000"/>
<rect x="4" y="9" width="2" height="9" fill="#9D0000"/>
<rect x="24" y="9" width="2" height="2" fill="white"/>
<rect x="26" y="11" width="2" height="2" fill="white"/>
<rect x="12" y="26" width="2" height="2" fill="#9D0000"/>
<rect x="10" y="24" width="2" height="2" fill="#9D0000"/>
<rect x="8" y="21" width="2" height="3" fill="#9D0000"/>
<rect x="14" y="27" width="3" height="3" fill="#9D0000"/>
<rect x="14" y="30" width="3" height="2" fill="#9D0000"/>
<rect x="14" y="30" width="5" height="2" fill="black"/>
<rect x="8" y="21" width="3" height="2" transform="rotate(90 8 21)" fill="black"/>
<rect x="10" y="24" width="2" height="2" transform="rotate(90 10 24)" fill="black"/>
<rect x="14" y="28" width="2" height="2" transform="rotate(90 14 28)" fill="black"/>
<rect x="12" y="26" width="2" height="2" transform="rotate(90 12 26)" fill="black"/>
<rect x="6" y="18" width="3" height="2" transform="rotate(90 6 18)" fill="black"/>
</svg>
