<svg width="34" height="34" viewBox="0 0 34 34" fill="none" xmlns="http://www.w3.org/2000/svg">
<rect x="9" y="18" width="18" height="6" fill="#A8452D"/>
<rect x="12" y="15" width="4" height="3" fill="#A8452D"/>
<rect x="12" y="10" width="7" height="8" fill="#A8452D"/>
<rect x="19" y="14" width="5" height="5" fill="#A8452D"/>
<rect x="3" y="22" width="28" height="9" fill="#A8452D"/>
<rect y="25" width="3" height="6" fill="black"/>
<rect x="6" y="25" width="11" height="3" fill="black"/>
<rect x="13" y="17" width="7" height="3" fill="black"/>
<rect x="9" y="14" width="4" height="3" fill="black"/>
<rect x="10" y="10" width="3" height="5" fill="black"/>
<rect x="16" y="10" width="3" height="3" fill="black"/>
<rect x="13" y="7" width="3" height="3" fill="black"/>
<rect x="27" y="21" width="4" height="3" fill="black"/>
<rect x="24" y="16" width="3" height="5" fill="black"/>
<rect x="31" y="24" width="3" height="7" fill="black"/>
<rect x="19" y="13" width="5" height="3" fill="black"/>
<rect x="3" y="31" width="28" height="3" fill="black"/>
<rect x="3" y="25" width="3" height="6" fill="#5F2014"/>
<rect x="6" y="22" width="3" height="3" fill="#5F2014"/>
<rect x="9" y="17" width="4" height="5" fill="#5F2014"/>
<rect x="3" y="22" width="3" height="3" fill="black"/>
<rect x="6" y="17" width="3" height="5" fill="black"/>
</svg>
