<?xml version="1.0"?>
<svg xmlns:rdf="http://www.w3.org/1999/02/22-rdf-syntax-ns#" xmlns="http://www.w3.org/2000/svg" xmlns:cc="http://creativecommons.org/ns#" xmlns:xlink="http://www.w3.org/1999/xlink" xmlns:dc="http://purl.org/dc/elements/1.1/" xmlns:svg="http://www.w3.org/2000/svg" id="svg2" viewBox="0 0 36 38" version="1.0">
  <defs id="defs4">
    <linearGradient id="linearGradient1552">
      <stop id="stop1554" stop-color="#f9cc84" offset="0"/>
      <stop id="stop1556" stop-color="#fed27f" offset="1"/>
    </linearGradient>
    <radialGradient id="radialGradient2506" gradientUnits="userSpaceOnUse" cy=".4053" cx="-18.3" gradientTransform="matrix(-.13160 1.117 -1.0576 -.12462 33.357 39.585)" r="17.1">
      <stop id="stop1427" stop-color="#f0d81f" offset="0"/>
      <stop id="stop1429" stop-color="#f07d0a" offset="1"/>
    </radialGradient>
    <linearGradient id="linearGradient2508" y2="47.922" gradientUnits="userSpaceOnUse" x2="27.857" gradientTransform="matrix(-1,0,0,-1,64,64)" y1="16.238" x1="32">
      <stop id="stop1520" stop-color="#f3ac39" stop-opacity=".62876" offset="0"/>
      <stop id="stop1522" stop-color="#fcba94" stop-opacity=".78261" offset="1"/>
    </linearGradient>
    <linearGradient id="linearGradient2510" y2="47.922" xlink:href="#linearGradient1552" gradientUnits="userSpaceOnUse" x2="27.857" gradientTransform="matrix(-1 0 0 -1 64.027 64)" y1="16.238" x1="32"/>
    <linearGradient id="linearGradient2512" y2="16.238" xlink:href="#linearGradient1552" gradientUnits="userSpaceOnUse" x2="30.302" gradientTransform="matrix(-1 0 0 -1 63.992 63.962)" y1="47.962" x1="36.312"/>
  </defs>
  <g id="layer1">
    <g id="g1421">
      <g id="g2499" transform="translate(-14,-13)">
        <path id="path2125" d="m42 50c1 0 1-1 1-1v-17c1-0.049 5 0 5 0 0.447-0.009 0.846-0.109 1.016-0.523s0.077-0.889-0.235-1.209l-16-16c-0.435-0.422-1.127-0.422-1.562 0l-16 16c-0.312 0.32-0.405 0.795-0.235 1.209s0.569 0.514 1.016 0.523h5v17.049s0 1 1 1c6 0 14-0.049 20-0.049z" fill="#a54005"/>
        <path id="path3636" d="m41.781 15.156c-5.903 0.002-13.643 0.061-19.562 0.063v16.781c0.001 0.649-0.508 1.186-1.157 1.219-1.093 0.053-4.057 0.008-4.624 0l15.562 15.562 15.531-15.562h-4.531c-0.673 0-1.219-0.546-1.219-1.219v-16.844z" fill="url(#radialGradient2506)" transform="matrix(-1,0,0,-1,64,64)"/>
        <path id="path1511" d="m23 47c0.906 1.031 17 1 18 0s-0.122-14.11-0.094-15c0.094-3 4.094-1 3.094-3-2-3-11-12-12-12s-10 9-12 12c-1 2 3 0 3.094 3 0.029 0.935-1.188 14.031-0.094 15z" fill="url(#linearGradient2508)"/>
        <path id="path1548" d="m44.027 29c-2-3-11-12-12-12s-7.027 5.459-9.027 8.502c0.973 0 4-3.502 9-3.502 4 0 9 9 12.027 7z" fill="url(#linearGradient2510)"/>
        <path id="path1558" d="m31.965 47.724c4.262-0.004 8.531-0.25 9.031-0.75 0.699-0.698 0.4-6.176 0.157-10.188-0.153-2.786-0.153-2.786-1.153 0.214-3.493 10.479-16.082 8.316-17.41 7.943 0.063 1.007 0.175 1.826 0.406 2.031 0.454 0.515 4.707 0.754 8.969 0.75z" fill="url(#linearGradient2512)"/>
      </g>
    </g>
  </g>
  <metadata>
    <rdf:RDF>
      <cc:Work>
        <dc:format>image/svg+xml</dc:format>
        <dc:type rdf:resource="http://purl.org/dc/dcmitype/StillImage"/>
        <cc:license rdf:resource="http://creativecommons.org/licenses/publicdomain/"/>
        <dc:publisher>
          <cc:Agent rdf:about="http://openclipart.org/">
            <dc:title>Openclipart</dc:title>
          </cc:Agent>
        </dc:publisher>
        <dc:title>arrow_orange_up</dc:title>
        <dc:date>2008-05-26T11:35:32</dc:date>
        <dc:description>arrow, arrow, clip art, clipart, icon, icon, image, media, png, public domain, svg, </dc:description>
        <dc:source>http://openclipart.org/detail/16969/arrow_orange_up-by-jean_victor_balin</dc:source>
        <dc:creator>
          <cc:Agent>
            <dc:title>jean_victor_balin</dc:title>
          </cc:Agent>
        </dc:creator>
        <dc:subject>
          <rdf:Bag>
            <rdf:li>arrow</rdf:li>
            <rdf:li>clip art</rdf:li>
            <rdf:li>clipart</rdf:li>
            <rdf:li>icon</rdf:li>
            <rdf:li>image</rdf:li>
            <rdf:li>media</rdf:li>
            <rdf:li>png</rdf:li>
            <rdf:li>public domain</rdf:li>
            <rdf:li>svg</rdf:li>
          </rdf:Bag>
        </dc:subject>
      </cc:Work>
      <cc:License rdf:about="http://creativecommons.org/licenses/publicdomain/">
        <cc:permits rdf:resource="http://creativecommons.org/ns#Reproduction"/>
        <cc:permits rdf:resource="http://creativecommons.org/ns#Distribution"/>
        <cc:permits rdf:resource="http://creativecommons.org/ns#DerivativeWorks"/>
      </cc:License>
    </rdf:RDF>
  </metadata>
</svg>
